<?xml version="1.0" encoding="UTF-8" standalone="no"?>
<svg width="140px" height="19px" viewBox="0 0 140 19" version="1.1" xmlns="http://www.w3.org/2000/svg" xmlns:xlink="http://www.w3.org/1999/xlink">
    <!-- Generator: Sketch 3.8.3 (29802) - http://www.bohemiancoding.com/sketch -->
    <title>Logo</title>
    <desc>Created with Sketch.</desc>
    <defs></defs>
    <g id="Symbols" stroke="none" stroke-width="1" fill="none" fill-rule="evenodd">
        <g id="Logo">
            <polygon id="Fill-6" fill="#7BBC42" points="7.35542857 11.0392381 9.42304762 11.0392381 9.42304762 0.0060952381 7.35542857 0.0060952381"></polygon>
            <path d="M12.1575238,3.55542857 L12.1561905,3.5592381 L11.2704762,5.33333333 C13.3537143,6.38895238 14.7889524,8.55580952 14.7889524,11.0392381 C14.7889524,14.5620952 11.9110476,17.4407619 8.38742857,17.4407619 C4.86780952,17.4407619 1.99104762,14.5620952 1.99104762,11.0392381 C1.99104762,8.544 3.43790476,6.37161905 5.53180952,5.31866667 L5.51866667,5.31409524 L4.61485714,3.5592381 C1.88552381,4.94495238 0,7.78342857 0,11.0392381 C0,15.6546667 3.77619048,19.4285714 8.38742857,19.4285714 C13.0019048,19.4285714 16.7775238,15.6546667 16.7775238,11.0392381 C16.7775238,7.78342857 14.8929524,4.94114286 12.1575238,3.55542857" id="Fill-8" fill="#7BBC42"></path>
            <path d="M20.6508571,12.98 C20.8051429,13.6167619 21.0455238,14.184381 21.3786667,14.6860952 C21.712,15.1859048 22.1369524,15.5946667 22.6527619,15.9068571 C23.1702857,16.2215238 23.7971429,16.3782857 24.5230476,16.3782857 C25.3327619,16.3782857 26.0165714,16.2215238 26.576,15.9068571 C27.1321905,15.5946667 27.5870476,15.1859048 27.9339048,14.6860952 C28.2820952,14.184381 28.536,13.6167619 28.688381,12.98 C28.8413333,12.3413333 28.9188571,11.7032381 28.9188571,11.0552381 C28.9188571,10.4104762 28.8413333,9.7712381 28.688381,9.13352381 C28.536,8.49809524 28.2820952,7.92780952 27.9339048,7.42971429 C27.5870476,6.92780952 27.1321905,6.52266667 26.576,6.20685714 C26.0165714,5.8952381 25.3327619,5.73428571 24.5230476,5.73428571 C23.7971429,5.73428571 23.1702857,5.8952381 22.6527619,6.20685714 C22.1369524,6.52266667 21.712,6.92780952 21.3786667,7.42971429 C21.0455238,7.92780952 20.8051429,8.49809524 20.6508571,9.13352381 C20.4954286,9.7712381 20.420381,10.4104762 20.420381,11.0552381 C20.420381,11.7032381 20.4954286,12.3413333 20.6508571,12.98 L20.6508571,12.98 L20.6508571,12.98 Z M29.0457143,17.3032381 L29.0388571,14.9299048 L29.0041905,14.9299048 C28.8407619,15.3325714 28.6022857,15.7030476 28.2857143,16.0445714 C27.971619,16.3826667 27.6099048,16.6706667 27.2078095,16.9017143 C26.8034286,17.136 26.3697143,17.3175238 25.9095238,17.4474286 C25.4460952,17.5780952 24.9889524,17.6419048 24.5365714,17.6419048 C23.5828571,17.6419048 22.7525714,17.4678095 22.0502857,17.1230476 C21.3428571,16.771619 20.7605714,16.2971429 20.2885714,15.6881905 C19.8177143,15.0824762 19.4708571,14.3798095 19.2453333,13.5807619 C19.0175238,12.7792381 18.9059048,11.9361905 18.9059048,11.0485714 C18.9059048,10.1584762 19.0175238,9.3152381 19.2453333,8.51485714 C19.4708571,7.7152381 19.8177143,7.01028571 20.2885714,6.40380952 C20.7579048,5.7992381 21.3428571,5.31866667 22.0466667,4.96361905 C22.7525714,4.60990476 23.580381,4.43085714 24.5361905,4.43085714 C25.0038095,4.43085714 25.4598095,4.48590476 25.9062857,4.59866667 C26.3491429,4.712 26.768,4.88742857 27.1527619,5.12038095 C27.5422857,5.35447619 27.8855238,5.64380952 28.1847619,5.98380952 C28.484381,6.3232381 28.7169524,6.71714286 28.8767619,7.16952381 L28.9188571,7.16952381 L28.9188571,0.0121904762 L30.431619,0.0121904762 L30.431619,17.3032381 L29.0457143,17.3032381 L29.0457143,17.3032381 L29.0457143,17.3032381 Z" id="Fill-10" fill="#2E3639"></path>
            <path d="M40.3508571,8.49447619 C40.1630476,7.96742857 39.9022857,7.49885714 39.5647619,7.0927619 C39.2253333,6.68190476 38.8140952,6.35371429 38.3295238,6.1072381 C37.8464762,5.85942857 37.2986667,5.73428571 36.684381,5.73428571 C36.0567619,5.73428571 35.5005714,5.85942857 35.0167619,6.1072381 C34.5321905,6.35371429 34.1222857,6.68190476 33.7841905,7.0927619 C33.444,7.49885714 33.172,7.97219048 32.9742857,8.5087619 C32.7699048,9.04342857 32.6392381,9.59161905 32.5735238,10.1495238 L40.6500952,10.1495238 C40.6350476,9.57561905 40.536,9.02266667 40.3508571,8.49447619 L40.3508571,8.49447619 L40.3508571,8.49447619 Z M32.8028571,13.1687619 C32.9569524,13.7548571 33.2055238,14.288381 33.5424762,14.7565714 C33.8780952,15.2234286 34.3087619,15.6100952 34.824,15.9169524 C35.3401905,16.2260952 35.9607619,16.3782857 36.6893333,16.3782857 C37.8017143,16.3782857 38.6752381,16.0914286 39.3015238,15.508 C39.931619,14.928 40.3700952,14.1495238 40.6093333,13.1788571 L42.1255238,13.1788571 C41.8028571,14.603619 41.2089524,15.7030476 40.3491429,16.4773333 C39.4853333,17.2554286 38.2653333,17.6419048 36.6893333,17.6419048 C35.7068571,17.6419048 34.8550476,17.4678095 34.139619,17.1230476 C33.4234286,16.771619 32.84,16.2971429 32.3878095,15.6881905 C31.9367619,15.0824762 31.6017143,14.3798095 31.384381,13.5807619 C31.1710476,12.7792381 31.0584762,11.9361905 31.0584762,11.0485714 C31.0584762,10.2234286 31.1710476,9.4167619 31.384381,8.62514286 C31.6017143,7.83161905 31.9367619,7.12495238 32.3878095,6.50533333 C32.8375238,5.88095238 33.4234286,5.37980952 34.1371429,4.99885714 C34.852,4.62095238 35.7030476,4.43085714 36.684381,4.43085714 C37.6826667,4.43085714 38.5369524,4.6327619 39.244,5.03980952 C39.9539048,5.44057143 40.5299048,5.96895238 40.9721905,6.6232381 C41.4125714,7.27847619 41.7318095,8.02857143 41.9238095,8.8767619 C42.1194286,9.724 42.2,10.5851429 42.1651429,11.4561905 L32.5735238,11.4561905 C32.5735238,12.0068571 32.6504762,12.5754286 32.8028571,13.1687619 L32.8028571,13.1687619 L32.8028571,13.1687619 Z" id="Fill-11" fill="#2E3639"></path>
            <path d="M44.1786667,4.79695238 L44.1786667,6.90190476 L44.2565714,6.90190476 C44.660381,6.12761905 45.188381,5.52190476 45.8405714,5.08495238 C46.4939048,4.64952381 47.3278095,4.43085714 48.344381,4.43085714 C49.1638095,4.43085714 49.9129524,4.6327619 50.5813333,5.03980952 C51.2527619,5.44057143 51.6988571,6.05428571 51.9255238,6.87942857 C52.2958095,6.05428571 52.8441905,5.44057143 53.5718095,5.03980952 C54.2967619,4.6327619 55.072381,4.43085714 55.8929524,4.43085714 C58.651619,4.43085714 60.0329524,5.8952381 60.0329524,8.81847619 L60.0329524,17.3032381 L58.5182857,17.3032381 L58.5182857,8.90514286 C58.5182857,7.87447619 58.300381,7.08628571 57.8641905,6.54514286 C57.4260952,6.00742857 56.66,5.73428571 55.5611429,5.73428571 C54.8982857,5.73428571 54.3462857,5.85942857 53.9144762,6.11009524 C53.476381,6.36038095 53.1259048,6.69485714 52.8689524,7.11485714 C52.6106667,7.53504762 52.4291429,8.01428571 52.324381,8.55580952 C52.2177143,9.096 52.1659048,9.65657143 52.1659048,10.236381 L52.1659048,17.3032381 L50.6518095,17.3032381 L50.6518095,8.83580952 C50.6518095,8.41390476 50.6072381,8.01428571 50.5194286,7.63409524 C50.428381,7.25619048 50.2813333,6.92533333 50.0807619,6.64171429 C49.8807619,6.36038095 49.6060952,6.14057143 49.2668571,5.97714286 C48.9297143,5.81657143 48.5171429,5.73428571 48.0321905,5.73428571 C47.3847619,5.73428571 46.8255238,5.85371429 46.3464762,6.08666667 C45.8702857,6.32 45.4801905,6.64171429 45.1820952,7.05409524 C44.8859048,7.46571429 44.6624762,7.94742857 44.5175238,8.50628571 C44.3699048,9.06438095 44.2992381,9.67219048 44.2992381,10.332381 L44.2992381,17.3032381 L42.7834286,17.3032381 L42.7834286,4.79695238 L44.1786667,4.79695238" id="Fill-12" fill="#2E3639"></path>
            <path d="M69.1287619,10.4657143 C69.0329524,10.6434286 68.8466667,10.7727619 68.5704762,10.856381 C68.296381,10.9358095 68.052381,10.992 67.8441905,11.0249524 C67.1986667,11.1352381 66.5310476,11.2386667 65.8447619,11.3291429 C65.1544762,11.4146667 64.5281905,11.5502857 63.9659048,11.7260952 C63.400381,11.9045714 62.9344762,12.1579048 62.5702857,12.4906667 C62.2060952,12.8226667 62.0262857,13.2935238 62.0262857,13.908 C62.0262857,14.295619 62.1005714,14.6382857 62.2542857,14.9367619 C62.4093333,15.2379048 62.616,15.4961905 62.8737143,15.7129524 C63.1314286,15.931619 63.4304762,16.0952381 63.7725714,16.2091429 C64.1089524,16.324 64.4575238,16.3782857 64.8144762,16.3782857 C65.3973333,16.3782857 65.9500952,16.2910476 66.4864762,16.1144762 C67.0190476,15.9365714 67.4862857,15.6765714 67.880381,15.3365714 C68.2767619,14.9980952 68.5914286,14.5868571 68.8272381,14.1024762 C69.059619,13.6167619 69.1775238,13.068 69.1775238,12.4552381 L69.1775238,10.4657143 L69.1287619,10.4657143 L69.1287619,10.4657143 L69.1287619,10.4657143 Z M61.5171429,6.75314286 C61.775619,6.22095238 62.1211429,5.78190476 62.5666667,5.43638095 C63.0106667,5.09409524 63.5274286,4.84171429 64.1238095,4.67619048 C64.7198095,4.51333333 65.3801905,4.43085714 66.1060952,4.43085714 C66.6481905,4.43085714 67.1986667,4.48095238 67.7462857,4.58895238 C68.2927619,4.69352381 68.7820952,4.89238095 69.2175238,5.18361905 C69.6529524,5.47333333 70.008,5.88095238 70.2809524,6.408 C70.5544762,6.93085714 70.6904762,7.61409524 70.6904762,8.45295238 L70.6904762,15.0973333 C70.6904762,15.7099048 70.9918095,16.0173333 71.587619,16.0173333 C71.7655238,16.0173333 71.9259048,15.9862857 72.0733333,15.9205714 L72.0733333,17.2047619 C71.8973333,17.2350476 71.7369524,17.259619 71.6020952,17.2769524 C71.4626667,17.2952381 71.2891429,17.3032381 71.076,17.3032381 C70.6931429,17.3032381 70.3847619,17.2510476 70.1537143,17.1470476 C69.9219048,17.0384762 69.7422857,16.8906667 69.6148571,16.695619 C69.4864762,16.5028571 69.4017143,16.2729524 69.3601905,16.0072381 C69.3234286,15.7377143 69.3038095,15.444 69.3038095,15.1201905 L69.2540952,15.1201905 C68.9809524,15.5266667 68.7028571,15.8859048 68.4180952,16.1979048 C68.1340952,16.5144762 67.8219048,16.7761905 67.4737143,16.9891429 C67.1270476,17.196 66.731619,17.359619 66.2857143,17.4693333 C65.8447619,17.5832381 65.3150476,17.6419048 64.7011429,17.6419048 C64.12,17.6419048 63.5731429,17.5725714 63.0668571,17.4333333 C62.5579048,17.2990476 62.1131429,17.0794286 61.7352381,16.7815238 C61.3529524,16.4855238 61.055619,16.1024762 60.8369524,15.6441905 C60.6184762,15.1859048 60.5093333,14.6426667 60.5093333,14.012 C60.5093333,13.140381 60.7030476,12.4588571 61.0908571,11.968381 C61.4788571,11.4765714 61.9921905,11.1011429 62.628381,10.8422857 C63.2653333,10.5851429 63.9878095,10.4017143 64.7830476,10.2971429 C65.5819048,10.1929524 66.3940952,10.092 67.216,9.99409524 C67.5382857,9.96247619 67.8219048,9.92114286 68.0653333,9.8727619 C68.3026667,9.82438095 68.5072381,9.73714286 68.6693333,9.61885714 C68.828,9.49980952 68.9550476,9.33238095 69.0441905,9.12209524 C69.1327619,8.91333333 69.1775238,8.64114286 69.1775238,8.30171429 C69.1775238,7.78457143 69.0918095,7.36019048 68.9234286,7.032 C68.7548571,6.69752381 68.5220952,6.43847619 68.2234286,6.24133333 C67.9222857,6.04819048 67.5779048,5.91561905 67.1782857,5.8432381 C66.7851429,5.77257143 66.364,5.73428571 65.9091429,5.73428571 C64.9434286,5.73428571 64.1521905,5.96647619 63.5390476,6.42552381 C62.9264762,6.88571429 62.6047619,7.62419048 62.5727619,8.64114286 L61.0561905,8.64114286 C61.1032381,7.91409524 61.2594286,7.28590476 61.5171429,6.75314286 L61.5171429,6.75314286 L61.5171429,6.75314286 Z" id="Fill-13" fill="#2E3639"></path>
            <path d="M73.9379048,4.79695238 L73.9379048,6.95009524 L73.9841905,6.95009524 C74.2721905,6.19009524 74.792381,5.58228571 75.5321905,5.12038095 C76.2771429,4.6632381 77.0952381,4.43085714 77.9830476,4.43085714 C78.8544762,4.43085714 79.5872381,4.54666667 80.1775238,4.76971429 C80.7668571,4.99638095 81.2369524,5.31485714 81.5906667,5.72857143 C81.9506667,6.14057143 82.2020952,6.64533333 82.3449524,7.24190476 C82.4939048,7.84095238 82.5632381,8.5112381 82.5632381,9.25447619 L82.5632381,17.3032381 L81.0512381,17.3032381 L81.0512381,9.51238095 C81.0512381,8.97942857 81.0020952,8.484 80.9019048,8.02171429 C80.8059048,7.56342857 80.6375238,7.16209524 80.3952381,6.82571429 C80.1521905,6.48438095 79.8245714,6.22095238 79.4127619,6.02342857 C79,5.83390476 78.4864762,5.73428571 77.8691429,5.73428571 C77.255619,5.73428571 76.7093333,5.8432381 76.2329524,6.0592381 C75.7535238,6.28 75.3502857,6.57847619 75.019619,6.95771429 C74.6881905,7.33790476 74.4310476,7.78761905 74.2407619,8.31295238 C74.055619,8.83828571 73.9540952,9.40495238 73.9379048,10.0175238 L73.9379048,17.3032381 L72.4278095,17.3032381 L72.4278095,4.79695238 L73.9379048,4.79695238" id="Fill-14" fill="#2E3639"></path>
            <path d="M84.8169524,12.98 C84.9704762,13.6167619 85.2140952,14.184381 85.5453333,14.6860952 C85.8786667,15.1859048 86.3011429,15.5946667 86.8188571,15.9068571 C87.3394286,16.2215238 87.9628571,16.3782857 88.6872381,16.3782857 C89.4973333,16.3782857 90.1824762,16.2215238 90.7388571,15.9068571 C91.2975238,15.5946667 91.7548571,15.1859048 92.1011429,14.6860952 C92.4497143,14.184381 92.6982857,13.6167619 92.8531429,12.98 C93.0068571,12.3413333 93.0847619,11.7032381 93.0847619,11.0552381 C93.0847619,10.4104762 93.0068571,9.7712381 92.8531429,9.13352381 C92.6982857,8.49809524 92.4497143,7.92780952 92.1011429,7.42838095 C91.7548571,6.92780952 91.2975238,6.52266667 90.7388571,6.20685714 C90.1824762,5.8952381 89.4973333,5.73428571 88.6872381,5.73428571 C87.9628571,5.73428571 87.3394286,5.8952381 86.8188571,6.20685714 C86.3011429,6.52266667 85.8786667,6.92780952 85.5453333,7.42838095 C85.2140952,7.92780952 84.9704762,8.49809524 84.8169524,9.13352381 C84.6651429,9.7712381 84.5874286,10.4104762 84.5874286,11.0552381 C84.5874286,11.7032381 84.6651429,12.3413333 84.8169524,12.98 L84.8169524,12.98 L84.8169524,12.98 Z M93.212381,17.3032381 L93.2057143,14.9299048 L93.1695238,14.9299048 C93.0068571,15.3325714 92.768381,15.7030476 92.4535238,16.0445714 C92.135619,16.3826667 91.7777143,16.6706667 91.3725714,16.9017143 C90.9693333,17.136 90.5337143,17.3175238 90.0735238,17.4474286 C89.6131429,17.5780952 89.1548571,17.6419048 88.7047619,17.6419048 C87.7468571,17.6419048 86.9205714,17.4678095 86.2137143,17.1184762 C85.5100952,16.771619 84.9238095,16.2971429 84.4561905,15.6881905 C83.9874286,15.0824762 83.6365714,14.3798095 83.4137143,13.5807619 C83.1832381,12.7792381 83.0687619,11.9361905 83.0687619,11.0485714 C83.0687619,10.1584762 83.1832381,9.3152381 83.4108571,8.51485714 C83.6365714,7.7152381 83.9874286,7.01028571 84.4561905,6.40380952 C84.9238095,5.7992381 85.5100952,5.31866667 86.2137143,4.96361905 C86.915619,4.60990476 87.7457143,4.43085714 88.699619,4.43085714 C89.1678095,4.43085714 89.6264762,4.48590476 90.0710476,4.59866667 C90.5152381,4.712 90.9308571,4.88742857 91.3205714,5.12038095 C91.7068571,5.35447619 92.0489524,5.64380952 92.352,5.98380952 C92.6508571,6.3232381 92.8809524,6.71714286 93.043619,7.16952381 L93.0847619,7.16952381 L93.0847619,0.0121904762 L94.5986667,0.0121904762 L94.5986667,17.3032381 L93.212381,17.3032381 L93.212381,17.3032381 L93.212381,17.3032381 Z" id="Fill-15" fill="#2E3639"></path>
            <polyline id="Fill-16" fill="#7BBC42" points="96.7097143 4.808 99.9106667 15.5137143 99.9571429 15.5137143 103.010286 4.808 104.729905 4.808 107.784381 15.5137143 107.833333 15.5137143 111.031238 4.808 112.653333 4.808 108.632571 17.3032381 106.961714 17.3032381 103.884952 6.79333333 103.834667 6.79333333 100.780381 17.3032381 99.108381 17.3032381 95.0906667 4.808 96.7097143 4.808"></polyline>
            <path d="M120.221524,10.4657143 C120.12419,10.6434286 119.939048,10.7727619 119.662476,10.856381 C119.388952,10.9358095 119.148571,10.992 118.937143,11.0249524 C118.289143,11.1352381 117.621333,11.2386667 116.936571,11.3291429 C116.247429,11.4146667 115.623619,11.5502857 115.056952,11.7260952 C114.490667,11.9045714 114.02419,12.1579048 113.664952,12.4906667 C113.295619,12.8226667 113.119048,13.2935238 113.119048,13.908 C113.119048,14.295619 113.192381,14.6382857 113.348,14.9367619 C113.502667,15.2379048 113.708952,15.4961905 113.969143,15.7129524 C114.224762,15.931619 114.525714,16.0952381 114.862476,16.2091429 C115.202476,16.324 115.54819,16.3782857 115.905524,16.3782857 C116.48781,16.3782857 117.04419,16.2910476 117.577524,16.1144762 C118.113143,15.9365714 118.574286,15.6765714 118.972,15.3365714 C119.367619,14.9980952 119.682476,14.5868571 119.916,14.1024762 C120.15181,13.6167619 120.268952,13.068 120.268952,12.4552381 L120.268952,10.4657143 L120.221524,10.4657143 L120.221524,10.4657143 L120.221524,10.4657143 Z M112.60819,6.75314286 C112.867048,6.22095238 113.214667,5.78190476 113.658857,5.43638095 C114.100952,5.09409524 114.62,4.84171429 115.214286,4.67619048 C115.812,4.51333333 116.473143,4.43085714 117.198857,4.43085714 C117.745524,4.43085714 118.289143,4.48095238 118.838476,4.58895238 C119.384762,4.69352381 119.877524,4.89238095 120.309524,5.18361905 C120.747048,5.47333333 121.101333,5.88095238 121.373524,6.408 C121.646667,6.93085714 121.780571,7.61409524 121.780571,8.45295238 L121.780571,15.0973333 C121.780571,15.7099048 122.083238,16.0173333 122.67981,16.0173333 C122.857714,16.0173333 123.021524,15.9862857 123.163238,15.9205714 L123.163238,17.2047619 C122.98381,17.2350476 122.832,17.259619 122.69181,17.2769524 C122.554857,17.2952381 122.383048,17.3032381 122.172762,17.3032381 C121.78781,17.3032381 121.47619,17.2510476 121.245905,17.1470476 C121.016,17.0384762 120.833333,16.8906667 120.706286,16.695619 C120.577143,16.5028571 120.496952,16.2729524 120.455429,16.0072381 C120.416,15.7377143 120.397333,15.444 120.397333,15.1201905 L120.348952,15.1201905 C120.074286,15.5266667 119.796952,15.8859048 119.513333,16.1979048 C119.230857,16.5144762 118.914857,16.7761905 118.568762,16.9891429 C118.22,17.196 117.822857,17.359619 117.378857,17.4693333 C116.936571,17.5832381 116.404381,17.6419048 115.790286,17.6419048 C115.21181,17.6419048 114.66781,17.5725714 114.156762,17.4333333 C113.647429,17.2990476 113.20419,17.0794286 112.824952,16.7815238 C112.449524,16.4855238 112.146857,16.1024762 111.927429,15.6441905 C111.712381,15.1859048 111.603429,14.6426667 111.603429,14.012 C111.603429,13.140381 111.795048,12.4588571 112.181333,11.968381 C112.572762,11.4765714 113.082476,11.1011429 113.721333,10.8422857 C114.355619,10.5851429 115.075619,10.4017143 115.875238,10.2971429 C116.676762,10.1929524 117.486667,10.092 118.308381,9.99409524 C118.633143,9.96247619 118.914857,9.92114286 119.156,9.8727619 C119.397333,9.82438095 119.601524,9.73714286 119.75981,9.61885714 C119.922667,9.49980952 120.046095,9.33238095 120.134667,9.12209524 C120.225905,8.91333333 120.268952,8.64114286 120.268952,8.30171429 C120.268952,7.78457143 120.184952,7.36019048 120.015238,7.032 C119.84781,6.69752381 119.611619,6.43847619 119.313143,6.24133333 C119.016381,6.04819048 118.666095,5.91561905 118.273905,5.8432381 C117.876571,5.77257143 117.456571,5.73428571 117.001143,5.73428571 C116.035619,5.73428571 115.246476,5.96647619 114.631619,6.42552381 C114.021333,6.88571429 113.69619,7.62419048 113.664952,8.64114286 L112.148571,8.64114286 C112.194286,7.91409524 112.351619,7.28590476 112.60819,6.75314286 L112.60819,6.75314286 L112.60819,6.75314286 Z" id="Fill-17" fill="#7BBC42"></path>
            <path d="M124.986857,4.79885714 L124.986857,7.73066667 L125.038476,7.73066667 C125.426095,6.7112381 126.029905,5.9287619 126.846476,5.37980952 C127.661714,4.83161905 128.631048,4.58133333 129.768571,4.62780952 L129.768571,6.14228571 C129.069905,6.112 128.443429,6.20495238 127.873333,6.42228571 C127.308571,6.64038095 126.822286,6.95009524 126.408952,7.35847619 C125.995429,7.75714286 125.679429,8.24095238 125.453143,8.79847619 C125.226476,9.356 125.112571,9.96571429 125.112571,10.6291429 L125.112571,17.2925714 L123.6,17.2925714 L123.6,4.79885714 L124.986857,4.79885714" id="Fill-18" fill="#7BBC42"></path>
            <path d="M138.076571,8.49447619 C137.888952,7.96742857 137.630667,7.49885714 137.289905,7.0927619 C136.949905,6.68190476 136.542286,6.35371429 136.056571,6.1072381 C135.573333,5.85942857 135.026286,5.73428571 134.411238,5.73428571 C133.782667,5.73428571 133.231048,5.85942857 132.741905,6.1072381 C132.261905,6.35371429 131.846476,6.68190476 131.508952,7.0927619 C131.174095,7.49885714 130.90019,7.97219048 130.701333,8.5087619 C130.497714,9.04342857 130.365143,9.59161905 130.297524,10.1495238 L138.379619,10.1495238 C138.363429,9.57561905 138.26019,9.02266667 138.076571,8.49447619 L138.076571,8.49447619 L138.076571,8.49447619 Z M130.53181,13.1687619 C130.68781,13.7548571 130.933143,14.288381 131.268762,14.7565714 C131.606286,15.2234286 132.03581,15.6100952 132.552381,15.9169524 C133.067048,16.2260952 133.690286,16.3782857 134.41619,16.3782857 C135.52819,16.3782857 136.402857,16.0914286 137.029524,15.508 C137.658857,14.928 138.095238,14.1495238 138.335619,13.1788571 L139.850095,13.1788571 C139.529714,14.603619 138.934667,15.7030476 138.076571,16.4773333 C137.21181,17.2554286 135.99581,17.6419048 134.41619,17.6419048 C133.431238,17.6419048 132.580762,17.4678095 131.864952,17.1184762 C131.147429,16.771619 130.565524,16.2971429 130.115619,15.6881905 C129.663048,15.0824762 129.328952,14.3798095 129.115048,13.5807619 C128.893905,12.7792381 128.78419,11.9361905 128.78419,11.0485714 C128.78419,10.2234286 128.893905,9.4167619 129.115048,8.62514286 C129.328952,7.83161905 129.663048,7.12495238 130.115619,6.50533333 C130.565524,5.88095238 131.147429,5.37980952 131.864952,4.99885714 C132.580762,4.62095238 133.429333,4.43085714 134.411238,4.43085714 C135.411619,4.43085714 136.262095,4.6327619 136.968762,5.03980952 C137.679619,5.44057143 138.256762,5.96895238 138.698095,6.6232381 C139.140762,7.27847619 139.45619,8.02857143 139.652952,8.8767619 C139.841524,9.724 139.925905,10.5851429 139.893524,11.4561905 L130.297524,11.4561905 C130.297524,12.0068571 130.378857,12.5754286 130.53181,13.1687619 L130.53181,13.1687619 L130.53181,13.1687619 Z" id="Fill-19" fill="#7BBC42"></path>
            <path d="M139.036952,16.864381 L139.11619,16.864381 C139.208762,16.864381 139.283619,16.8335238 139.283619,16.7588571 C139.283619,16.6927619 139.235238,16.6485714 139.129524,16.6485714 C139.085333,16.6485714 139.054476,16.6529524 139.036952,16.6571429 L139.036952,16.864381 L139.036952,16.864381 L139.036952,16.864381 Z M139.032381,17.2740952 L138.865143,17.2740952 L138.865143,16.5518095 C138.931238,16.5384762 139.023619,16.5295238 139.142667,16.5295238 C139.279429,16.5295238 139.340952,16.5518095 139.393714,16.5826667 C139.433143,16.6131429 139.464,16.6706667 139.464,16.7411429 C139.464,16.8205714 139.402286,16.8820952 139.314476,16.908381 L139.314476,16.9173333 C139.384762,16.943619 139.424571,16.9965714 139.446476,17.0931429 C139.468762,17.2034286 139.481905,17.247619 139.49981,17.2740952 L139.318857,17.2740952 C139.296952,17.247619 139.283619,17.1815238 139.261714,17.0977143 C139.248571,17.0184762 139.204381,16.9830476 139.112,16.9830476 L139.032381,16.9830476 L139.032381,17.2740952 L139.032381,17.2740952 L139.032381,17.2740952 Z M138.587429,16.8948571 C138.587429,17.2167619 138.825524,17.4721905 139.151429,17.4721905 C139.468762,17.4721905 139.702095,17.2167619 139.702095,16.8998095 C139.702095,16.5779048 139.468762,16.3182857 139.147048,16.3182857 C138.825524,16.3182857 138.587429,16.5779048 138.587429,16.8948571 L138.587429,16.8948571 L138.587429,16.8948571 Z M139.887048,16.8948571 C139.887048,17.3049524 139.565524,17.6262857 139.147048,17.6262857 C138.732952,17.6262857 138.403048,17.3049524 138.403048,16.8948571 C138.403048,16.4942857 138.732952,16.1725714 139.147048,16.1725714 C139.565524,16.1725714 139.887048,16.4942857 139.887048,16.8948571 L139.887048,16.8948571 L139.887048,16.8948571 Z" id="Fill-41" fill="#7BBC42"></path>
        </g>
    </g>
</svg>